<?xml version="1.0" encoding="UTF-8" standalone="no"?>
<!DOCTYPE svg PUBLIC "-//W3C//DTD SVG 1.1//EN" "http://www.w3.org/Graphics/SVG/1.1/DTD/svg11.dtd">
<svg width="100%" height="100%" viewBox="0 0 6065 7207" version="1.1" xmlns="http://www.w3.org/2000/svg" xmlns:xlink="http://www.w3.org/1999/xlink" xml:space="preserve" xmlns:serif="http://www.serif.com/" style="fill-rule:evenodd;clip-rule:evenodd;stroke-linejoin:round;stroke-miterlimit:2;">
    <g transform="matrix(1,0,0,1,0,-15025)">
        <g id="irene-montero-was-right-troquelada" transform="matrix(1,0,0,1,-7765,664)">
            <rect x="7765" y="14361" width="6064.35" height="7206.47" style="fill:none;"/>
            <clipPath id="_clip1">
                <rect x="7765" y="14361" width="6064.35" height="7206.47"/>
            </clipPath>
            <g clip-path="url(#_clip1)">
                <g id="sticker" transform="matrix(1,0,0,1,6422.18,13642.5)">
                    <g id="borde" transform="matrix(21.7133,0,0,22.3837,-32890.9,-159813)">
                        <path d="M1813.79,7381.17C1815.26,7381 1816.75,7380.92 1818.29,7380.92C1825.21,7380.92 1831.4,7382.61 1836.91,7385.81C1842.49,7389.03 1846.9,7393.47 1850.08,7399.17C1853.04,7404.46 1854.62,7410.39 1854.62,7417.02C1854.62,7422.53 1853.53,7427.56 1851.46,7432.14C1854.27,7435.38 1855.96,7439.56 1855.96,7444.12L1855.96,7447.93C1855.96,7454.84 1852.08,7460.87 1846.32,7464.09L1846.32,7474.78C1846.32,7485.07 1837.72,7493.4 1827.13,7493.4L1823.15,7493.4C1820.67,7493.4 1818.31,7492.94 1816.13,7492.12C1813.96,7492.94 1811.6,7493.4 1809.12,7493.4L1805.1,7493.4C1802.22,7493.4 1799.48,7492.78 1797.02,7491.68C1794.57,7492.78 1791.83,7493.4 1788.94,7493.4L1784.92,7493.4C1782.37,7493.4 1779.94,7492.92 1777.71,7492.04C1774.14,7493.18 1770.44,7493.75 1766.6,7493.75C1762.08,7493.75 1757.89,7492.97 1754,7491.46C1751.42,7492.7 1748.53,7493.4 1745.46,7493.4L1741.44,7493.4C1740.41,7493.4 1739.4,7493.32 1738.42,7493.17C1737.43,7493.32 1736.43,7493.4 1735.41,7493.4L1731.03,7493.4C1728.45,7493.4 1725.95,7492.9 1723.64,7491.96C1721.36,7492.89 1718.86,7493.4 1716.24,7493.4L1712.22,7493.4C1707.38,7493.4 1702.95,7491.66 1699.57,7488.78C1698.5,7489.48 1697.35,7490.12 1696.11,7490.7C1692.18,7492.56 1687.4,7493.75 1681.67,7493.75C1678.95,7493.75 1676.29,7493.47 1673.69,7492.9C1672.26,7493.23 1670.79,7493.4 1669.29,7493.4L1665.07,7493.4C1661.22,7493.4 1657.57,7492.29 1654.5,7490.32C1651.43,7492.29 1647.77,7493.4 1643.93,7493.4L1639.79,7493.4C1637.96,7493.4 1636.17,7493.15 1634.46,7492.67C1632.76,7493.15 1630.97,7493.4 1629.14,7493.4L1624.92,7493.4C1622.21,7493.4 1619.61,7492.85 1617.24,7491.85C1614.87,7492.85 1612.27,7493.4 1609.56,7493.4L1605.26,7493.4C1596.77,7493.4 1589.29,7487.99 1586.87,7480.09L1577.47,7449.43C1576.09,7444.93 1576.52,7440.14 1578.6,7435.99C1578.51,7435.28 1578.47,7434.56 1578.47,7433.83L1578.47,7400.21C1578.47,7389.93 1587.06,7381.59 1597.66,7381.59L1604.84,7381.59C1608.73,7381.59 1612.44,7382.73 1615.55,7384.76C1617.8,7383.3 1620.35,7382.3 1623.06,7381.85C1620.86,7372.23 1617.93,7363.32 1615.41,7354.57C1611.41,7340.67 1608.26,7327.1 1608.26,7312.62C1608.26,7298.51 1613.59,7288.82 1620.3,7280.74C1622.37,7278.26 1624.57,7275.97 1626.66,7273.72C1627.44,7272.89 1628.62,7271.44 1629.2,7270.72C1629.24,7250.07 1630.44,7211.84 1656.35,7189.87C1668.51,7179.56 1685.96,7172.02 1711.71,7171.8C1782,7171.21 1792.87,7234.11 1792.87,7278.24C1792.87,7281.12 1794.62,7283.73 1796.26,7286.73C1798.47,7290.77 1801.09,7294.99 1803.72,7299.55C1811.97,7313.91 1819.9,7331.06 1819.9,7354.02C1819.9,7364.53 1817.55,7373.47 1813.79,7381.17Z" style="fill:white;"/>
                    </g>
                    <g id="MONTERO-WAS-RIGHT" serif:id="MONTERO WAS RIGHT" transform="matrix(21.7133,0,0,22.3837,-32890.9,-159813)">
                        <path d="M1625.51,7433.83L1625.42,7416.01L1617.49,7430.52L1613.61,7430.52L1605.72,7416.49L1605.72,7433.83L1597.66,7433.83L1597.66,7400.21L1604.84,7400.21L1615.68,7419.61L1626.26,7400.21L1633.44,7400.21L1633.53,7433.83L1625.51,7433.83ZM1655.26,7434.51C1652,7434.51 1649.07,7433.75 1646.47,7432.25C1643.87,7430.74 1641.83,7428.66 1640.34,7426C1638.86,7423.34 1638.12,7420.35 1638.12,7417.02C1638.12,7413.69 1638.86,7410.69 1640.34,7408.04C1641.83,7405.38 1643.87,7403.3 1646.47,7401.79C1649.07,7400.29 1652,7399.53 1655.26,7399.53C1658.52,7399.53 1661.45,7400.29 1664.05,7401.79C1666.65,7403.3 1668.7,7405.38 1670.18,7408.04C1671.66,7410.69 1672.41,7413.69 1672.41,7417.02C1672.41,7420.35 1671.66,7423.34 1670.18,7426C1668.7,7428.66 1666.65,7430.74 1664.05,7432.25C1661.45,7433.75 1658.52,7434.51 1655.26,7434.51ZM1655.26,7426.63C1656.82,7426.63 1658.23,7426.23 1659.49,7425.43C1660.76,7424.62 1661.76,7423.5 1662.49,7422.04C1663.22,7420.58 1663.59,7418.91 1663.59,7417.02C1663.59,7415.13 1663.22,7413.46 1662.49,7412C1661.76,7410.54 1660.76,7409.41 1659.49,7408.61C1658.23,7407.81 1656.82,7407.41 1655.26,7407.41C1653.7,7407.41 1652.29,7407.81 1651.03,7408.61C1649.77,7409.41 1648.77,7410.54 1648.03,7412C1647.3,7413.46 1646.93,7415.13 1646.93,7417.02C1646.93,7418.91 1647.3,7420.58 1648.03,7422.04C1648.77,7423.5 1649.77,7424.62 1651.03,7425.43C1652.29,7426.23 1653.7,7426.63 1655.26,7426.63ZM1706.34,7400.21L1706.34,7433.83L1699.16,7433.83L1685.54,7415.91L1685.54,7433.83L1676.99,7433.83L1676.99,7400.21L1684.17,7400.21L1697.79,7418.12L1697.79,7400.21L1706.34,7400.21ZM1719.08,7407.75L1709.6,7407.75L1709.6,7400.21L1737.24,7400.21L1737.24,7407.75L1727.81,7407.75L1727.81,7433.83L1719.08,7433.83L1719.08,7407.75ZM1765.27,7426.48L1765.27,7433.83L1740.5,7433.83L1740.5,7400.21L1764.7,7400.21L1764.7,7407.56L1749.14,7407.56L1749.14,7413.22L1762.85,7413.22L1762.85,7420.33L1749.14,7420.33L1749.14,7426.48L1765.27,7426.48ZM1783.6,7424.9L1778.84,7424.9L1778.84,7433.83L1770.12,7433.83L1770.12,7400.21L1784.22,7400.21C1787.01,7400.21 1789.44,7400.71 1791.49,7401.72C1793.55,7402.73 1795.14,7404.17 1796.25,7406.04C1797.37,7407.92 1797.93,7410.12 1797.93,7412.65C1797.93,7415.08 1797.41,7417.2 1796.36,7419.01C1795.32,7420.82 1793.83,7422.24 1791.89,7423.26L1798.54,7433.83L1789.2,7433.83L1783.6,7424.9ZM1789.11,7412.65C1789.11,7411.08 1788.66,7409.86 1787.75,7409C1786.84,7408.13 1785.48,7407.7 1783.69,7407.7L1778.84,7407.7L1778.84,7417.55L1783.69,7417.55C1785.48,7417.55 1786.84,7417.12 1787.75,7416.28C1788.66,7415.43 1789.11,7414.22 1789.11,7412.65ZM1818.29,7434.51C1815.03,7434.51 1812.1,7433.75 1809.5,7432.25C1806.9,7430.74 1804.85,7428.66 1803.37,7426C1801.89,7423.34 1801.14,7420.35 1801.14,7417.02C1801.14,7413.69 1801.89,7410.69 1803.37,7408.04C1804.85,7405.38 1806.9,7403.3 1809.5,7401.79C1812.1,7400.29 1815.03,7399.53 1818.29,7399.53C1821.55,7399.53 1824.48,7400.29 1827.08,7401.79C1829.68,7403.3 1831.72,7405.38 1833.21,7408.04C1834.69,7410.69 1835.43,7413.69 1835.43,7417.02C1835.43,7420.35 1834.69,7423.34 1833.21,7426C1831.72,7428.66 1829.68,7430.74 1827.08,7432.25C1824.48,7433.75 1821.55,7434.51 1818.29,7434.51ZM1818.29,7426.63C1819.85,7426.63 1821.26,7426.23 1822.52,7425.43C1823.78,7424.62 1824.78,7423.5 1825.52,7422.04C1826.25,7420.58 1826.62,7418.91 1826.62,7417.02C1826.62,7415.13 1826.25,7413.46 1825.52,7412C1824.78,7410.54 1823.78,7409.41 1822.52,7408.61C1821.26,7407.81 1819.85,7407.41 1818.29,7407.41C1816.73,7407.41 1815.32,7407.81 1814.06,7408.61C1812.8,7409.41 1811.8,7410.54 1811.06,7412C1810.33,7413.46 1809.96,7415.13 1809.96,7417.02C1809.96,7418.91 1810.33,7420.58 1811.06,7422.04C1811.8,7423.5 1812.8,7424.62 1814.06,7425.43C1815.32,7426.23 1816.73,7426.63 1818.29,7426.63ZM1638.54,7444.12L1629.14,7474.78L1624.92,7474.78L1617.24,7450.3L1609.56,7474.78L1605.26,7474.78L1595.86,7444.12L1600,7444.12L1607.59,7469.05L1615.51,7444.12L1619.21,7444.12L1626.97,7469.18L1634.72,7444.12L1638.54,7444.12ZM1661.97,7467.12L1647.02,7467.12L1643.93,7474.78L1639.79,7474.78L1652.53,7444.12L1656.51,7444.12L1669.29,7474.78L1665.07,7474.78L1661.97,7467.12ZM1660.57,7463.61L1654.5,7448.59L1648.43,7463.61L1660.57,7463.61ZM1681.67,7475.14C1679.55,7475.14 1677.51,7474.78 1675.54,7474.06C1673.57,7473.35 1672.02,7472.42 1670.89,7471.28L1672.38,7467.86C1673.45,7468.91 1674.83,7469.77 1676.5,7470.43C1678.18,7471.08 1679.9,7471.41 1681.67,7471.41C1684,7471.41 1685.74,7470.98 1686.89,7470.12C1688.04,7469.26 1688.62,7468.11 1688.62,7466.68C1688.62,7465.63 1688.3,7464.78 1687.67,7464.12C1687.05,7463.46 1686.27,7462.96 1685.34,7462.61C1684.42,7462.26 1683.11,7461.86 1681.42,7461.42C1679.31,7460.87 1677.6,7460.31 1676.3,7459.76C1675,7459.2 1673.89,7458.35 1672.96,7457.2C1672.04,7456.04 1671.58,7454.49 1671.58,7452.53C1671.58,7450.9 1671.97,7449.42 1672.76,7448.11C1673.55,7446.79 1674.75,7445.74 1676.36,7444.95C1677.97,7444.16 1679.96,7443.77 1682.35,7443.77C1684.01,7443.77 1685.64,7444 1687.25,7444.47C1688.86,7444.94 1690.24,7445.61 1691.39,7446.49L1690.07,7449.99C1688.89,7449.17 1687.63,7448.55 1686.29,7448.13C1684.95,7447.71 1683.63,7447.49 1682.35,7447.49C1680.07,7447.49 1678.36,7447.95 1677.23,7448.85C1676.09,7449.76 1675.52,7450.93 1675.52,7452.36C1675.52,7453.41 1675.84,7454.26 1676.48,7454.92C1677.12,7455.58 1677.92,7456.09 1678.87,7456.45C1679.82,7456.82 1681.12,7457.2 1682.75,7457.61C1684.87,7458.17 1686.57,7458.72 1687.86,7459.28C1689.14,7459.83 1690.25,7460.68 1691.17,7461.82C1692.1,7462.96 1692.56,7464.49 1692.56,7466.42C1692.56,7468.02 1692.15,7469.49 1691.35,7470.82C1690.55,7472.15 1689.33,7473.2 1687.69,7473.97C1686.06,7474.75 1684.05,7475.14 1681.67,7475.14ZM1731.03,7474.78L1724.96,7465.37C1724.21,7465.43 1723.62,7465.45 1723.19,7465.45L1716.24,7465.45L1716.24,7474.78L1712.22,7474.78L1712.22,7444.12L1723.19,7444.12C1726.84,7444.12 1729.7,7445.07 1731.79,7446.97C1733.88,7448.87 1734.93,7451.48 1734.93,7454.81C1734.93,7457.18 1734.39,7459.19 1733.32,7460.86C1732.25,7462.52 1730.72,7463.73 1728.74,7464.49L1735.41,7474.78L1731.03,7474.78ZM1723.07,7461.73C1725.62,7461.73 1727.56,7461.13 1728.9,7459.94C1730.24,7458.74 1730.91,7457.03 1730.91,7454.81C1730.91,7452.59 1730.24,7450.89 1728.9,7449.71C1727.56,7448.52 1725.62,7447.93 1723.07,7447.93L1716.24,7447.93L1716.24,7461.73L1723.07,7461.73ZM1741.44,7444.12L1745.46,7444.12L1745.46,7474.78L1741.44,7474.78L1741.44,7444.12ZM1773.39,7459.28L1777.25,7459.28L1777.25,7471.24C1775.86,7472.49 1774.24,7473.46 1772.39,7474.13C1770.54,7474.8 1768.61,7475.14 1766.6,7475.14C1763.76,7475.14 1761.2,7474.46 1758.92,7473.1C1756.64,7471.74 1754.86,7469.87 1753.56,7467.49C1752.26,7465.11 1751.61,7462.43 1751.61,7459.45C1751.61,7456.47 1752.26,7453.79 1753.56,7451.39C1754.86,7449 1756.65,7447.13 1758.94,7445.78C1761.23,7444.44 1763.81,7443.77 1766.68,7443.77C1768.93,7443.77 1770.97,7444.17 1772.81,7444.98C1774.64,7445.78 1776.2,7446.95 1777.49,7448.5L1775,7451.22C1772.75,7448.85 1770.03,7447.67 1766.84,7447.67C1764.7,7447.67 1762.77,7448.17 1761.07,7449.18C1759.37,7450.19 1758.04,7451.59 1757.07,7453.39C1756.11,7455.18 1755.63,7457.2 1755.63,7459.45C1755.63,7461.67 1756.11,7463.68 1757.07,7465.48C1758.04,7467.27 1759.37,7468.68 1761.07,7469.7C1762.77,7470.73 1764.68,7471.24 1766.8,7471.24C1769.32,7471.24 1771.52,7470.58 1773.39,7469.27L1773.39,7459.28ZM1809.12,7444.12L1809.12,7474.78L1805.1,7474.78L1805.1,7461.12L1788.94,7461.12L1788.94,7474.78L1784.92,7474.78L1784.92,7444.12L1788.94,7444.12L1788.94,7457.31L1805.1,7457.31L1805.1,7444.12L1809.12,7444.12ZM1823.15,7447.93L1813.5,7447.93L1813.5,7444.12L1836.77,7444.12L1836.77,7447.93L1827.13,7447.93L1827.13,7474.78L1823.15,7474.78L1823.15,7447.93Z" style="fill:rgb(141,99,255);"/>
                    </g>
                    <g id="irene-montero" transform="matrix(1,0,0,1,-9521,0)">
                        <path d="M12986,2449.92C12988.2,2450.63 12988.5,2453.05 12987.9,2455.11L12987.9,2455.08C12987.3,2456.5 12987.2,2457.85 12986.3,2459.25C12985.2,2460.47 12984.3,2461.79 12983.4,2463.18C12983.8,2463.42 12984.3,2463.77 12984.7,2464.22C12988.3,2470.21 12980.7,2474.55 12977.4,2478.48C12979.2,2481.98 12975.2,2488.01 12971.2,2485.98C12970,2485.59 12969,2485.04 12968.4,2484.37C12967.7,2484.43 12966.9,2484.35 12966,2484.1C12956.1,2478.99 12970.1,2463.88 12973.9,2458.14C12977,2454.72 12980.7,2448.78 12986,2449.92ZM13418,2434.32C13427.7,2442.24 13434.2,2454.47 13434.6,2466.93C13434,2482.08 13422.6,2496.78 13408.1,2500.97C13392.7,2504.62 13376.5,2501.77 13361.2,2499.55C13335,2494.19 13308.8,2492.81 13282.4,2492.58C13259,2492.75 13235.6,2490.88 13212.3,2489.86C13193.2,2489.34 13174.2,2488.36 13155.4,2485.52C13147.9,2484.34 13140.7,2482.09 13133.5,2480.08C13124.6,2478.45 13115.6,2477.67 13106.6,2476.95C13085.1,2475.86 13063.9,2471.84 13042.6,2469.11C13038.1,2468.54 13031.6,2468.35 13027.8,2465.26C13025.7,2465.37 13022.8,2465.41 13022.1,2463.33C13021.4,2461.52 13022.9,2459.99 13024.6,2459.31C13024.4,2458.43 13024.3,2457.54 13024.4,2456.63C13024.1,2456.6 13023.8,2456.55 13023.6,2456.48C13017.2,2460.47 13011,2464.57 13005.1,2469.18C13002.5,2471.2 13001.1,2472.33 12999.3,2473.88C12996.6,2477.18 12993.5,2479.71 12989.6,2479.03C12975.6,2473.29 13013.5,2420.52 13021.7,2414.88C13033.8,2405.66 13041.2,2419.05 13035.4,2429C13040,2426.04 13044.7,2423.19 13049.4,2420.5C13052.5,2419.28 13054.9,2419.27 13056.7,2420.07C13060.1,2417.69 13063.1,2415.69 13065.3,2414.17C13088.2,2398.64 13113.5,2381.21 13141.6,2378.44C13180.5,2375.84 13214.6,2381.96 13252.2,2383.65C13260.4,2384.36 13268.4,2386.01 13276.5,2387.43C13291.7,2389.99 13307.3,2391.13 13321.4,2397.7C13335.8,2402.15 13350.8,2404.4 13364.4,2411.24C13369.2,2413.03 13373.5,2415.87 13378.7,2416.52C13392.6,2420.11 13406.4,2425.86 13418,2434.32ZM13388.5,2478.75C13388.3,2478.39 13388.1,2478.02 13387.9,2477.66C13387.3,2478.09 13386.7,2478.51 13386.1,2478.9C13386.9,2478.86 13387.7,2478.8 13388.5,2478.75ZM14314.4,2355.33C14320.6,2356.53 14331.1,2357.06 14327.2,2366.3C14325.2,2370.14 14322,2371.86 14318.4,2372.27C14319.4,2375.35 14315.6,2377.49 14313.6,2379.25C14311.3,2381.08 14307.9,2384.19 14304.7,2384.9C14307,2385.53 14309.3,2386.23 14311.5,2387.13C14312.5,2387.62 14313.3,2388.38 14313.5,2389.53C14314.4,2392.03 14311.8,2394.66 14309.3,2394.24C14307.9,2394.07 14307.8,2393.17 14307,2392.49C14294.7,2389.24 14281.9,2389.42 14269.3,2387.88C14262.3,2387.49 14255.4,2387.09 14248.5,2386.77C14248.5,2386.77 14248.5,2386.76 14248.5,2386.77C14238.1,2386.66 14227.7,2386.43 14217.4,2386.24C14217.3,2386.23 14217.3,2386.24 14217.3,2386.24C14209.5,2386.43 14201.7,2386.91 14193.8,2387.84C14170.3,2391.02 14144.2,2398.74 14121.5,2402.61C14088.8,2410.11 14055,2410.42 14022.2,2417.86C13982.8,2427.48 13950.3,2445.4 13911.9,2454.81C13898.9,2458.8 13885.6,2461.88 13872.2,2460.77C13866.1,2460.25 13860.3,2458.12 13854.3,2456.63C13846.8,2454.44 13839.6,2451.01 13835.9,2444.73C13829.9,2435.75 13825.3,2426.26 13822.3,2416.08C13818.6,2399.49 13823.2,2383.47 13836.9,2373.14C13851.7,2360.4 13870.9,2356.16 13888.5,2348.86C13888.5,2348.85 13888.5,2348.84 13888.6,2348.83C13893.7,2346.05 13899,2343.58 13904.5,2341.54C13904.5,2341.53 13904.5,2341.52 13904.5,2341.51C13920.9,2333.75 13937.1,2325.88 13954.5,2321.62C13961.7,2318.62 13969.2,2315.28 13977.1,2315.29C13977.4,2315.3 13977.7,2315.33 13978,2315.36C13980.6,2314.68 13983.2,2314.09 13985.9,2313.59C14006.7,2310.63 14027.8,2310.89 14048.6,2308.93C14071.1,2307.13 14093.6,2307.8 14116.1,2307.99C14139.2,2308 14162.6,2308.65 14185.3,2313.12C14202.9,2316.12 14219.2,2323.69 14236.2,2328.73C14249.8,2332.57 14263.4,2336.49 14276.6,2341.76C14288.6,2348.27 14301.4,2351.66 14314.4,2355.33ZM14299.3,2383.48C14299.6,2383.55 14299.9,2383.62 14300.2,2383.7C14299.9,2383.46 14299.7,2383.18 14299.4,2382.87C14298.8,2381.85 14298.8,2380.79 14299,2379.78C14297.6,2380.51 14296.1,2381.31 14294.8,2382.22C14296.3,2382.59 14297.8,2383.01 14299.3,2383.48ZM14323.8,2558.66C14323.9,2564.27 14323.4,2571.59 14321.6,2578.58C14321.3,2582.2 14320.2,2586.14 14318.9,2589.72C14312.7,2604.16 14299.4,2613.7 14287.3,2623C14264.5,2637 14240.8,2649.62 14217.7,2663.21C14213.9,2666.01 14210.2,2668.74 14206,2670.99C14204,2672.46 14200.4,2675.03 14198.3,2672.39C14197,2669.27 14201.1,2667.57 14203.3,2666.43C14206.7,2664.6 14210,2662.7 14213.5,2661.13C14224.6,2654.28 14234.2,2645.76 14244.8,2638.21C14255.5,2629.88 14267.6,2623.3 14277.3,2613.79C14279.9,2611.34 14282.2,2608.59 14284.2,2605.65C14272.2,2607.51 14262.1,2615.61 14250.2,2618.55C14234.9,2623.18 14217.4,2622.5 14203,2622.51C14179,2623.18 14158.6,2618.51 14135,2620.26C14124.1,2620.84 14113.3,2622.77 14102.6,2624.63C14098.1,2626.43 14093.3,2627.41 14088.5,2627.37C14087.8,2627.3 14087.1,2627.24 14086.4,2627.18C14066.5,2629.78 14046.4,2631.37 14026.3,2631C14021,2630.97 14015.6,2630.95 14010.2,2630.9C13996.7,2633.07 13983.4,2635.67 13970.2,2639.43C13953.6,2644.01 13936.6,2649.76 13919.2,2649.35C13906.5,2648.52 13899.9,2637.11 13893.9,2627.35C13893.4,2626.54 13892.9,2625.66 13892.3,2624.74C13883.9,2628.3 13875.9,2632.84 13867.6,2636.74C13863.3,2638.78 13858.6,2640.34 13853.8,2639.9C13848.3,2639.84 13842.9,2635.28 13842.6,2629.7C13841.5,2626.2 13840,2622.84 13840.8,2619.04C13841.2,2614.44 13848.1,2607.38 13856.4,2601.36C13849.4,2600.86 13842.4,2600.46 13835.4,2600.22C13828.5,2599.95 13821.5,2599.65 13814.5,2599.33C13812.2,2599.3 13809.3,2598.86 13808.4,2596.32C13807.9,2594.83 13808.3,2593.08 13809.2,2591.82C13810.1,2590.69 13811.1,2589.73 13812.1,2588.91C13812,2588.89 13811.9,2588.87 13811.8,2588.85C13808.6,2587.91 13805.5,2587.43 13802.6,2585.63C13798.3,2582.6 13800.7,2576.3 13804.4,2573.87C13810.8,2570.5 13817.5,2568.73 13824.4,2567.89C13821.9,2564.59 13819.9,2560.9 13818.8,2556.85C13817.3,2548.71 13816.5,2539.45 13819.1,2531.48C13821.6,2526.29 13829.9,2524.5 13833.2,2529.84C13835.1,2532.96 13836.2,2536.44 13837.6,2539.79C13841.9,2550.03 13851.6,2555.41 13861.2,2559.7C13866.7,2548.22 13871.9,2537.47 13879.3,2527.15C13917.7,2475.58 13988,2465.67 14048,2470.39C14057.4,2470.88 14066.7,2471.67 14076.1,2472.51C14087.5,2472.51 14099,2472.93 14110.3,2474.35C14120.6,2476.1 14130.8,2478.53 14141.3,2479.37C14147.9,2479.9 14153.9,2482.71 14160.1,2484.72C14170.2,2487.71 14180.5,2490.22 14190.7,2492.77C14204.5,2494.89 14217.8,2499.03 14231.1,2503.09C14252,2508.87 14273,2515.33 14291.8,2526.28C14299.9,2530.9 14307.6,2536.19 14314,2543.03C14318.4,2547.43 14323.1,2552.18 14323.8,2558.66ZM13884.6,2569.84C13885.3,2568.64 13885.9,2567.45 13886.6,2566.26C13885.8,2567.38 13884.9,2568.47 13884.1,2569.55C13884.3,2569.64 13884.5,2569.74 13884.6,2569.84ZM14113.9,2694.33C14130.3,2700.2 14120,2719.42 14107,2722.39C14104.2,2723.17 14101.4,2723.62 14098.5,2723.83C14096.8,2724.62 14095.4,2725.28 14094.4,2725.81C14078.3,2733.89 14059.9,2735.33 14042.1,2735.42C14028.8,2734.83 14015.7,2731.38 14002.7,2728.89C13987.2,2726.45 13972.7,2720.47 13958,2715.39C13950.6,2714.33 13943.7,2711.2 13936.6,2708.95C13935,2708.54 13933.7,2707.55 13932.9,2706.27C13932.1,2706.17 13931.2,2706.06 13930.4,2705.94C13920.4,2704.28 13910.8,2700.73 13901.4,2697.27C13898.6,2696.31 13895.7,2694.97 13892.9,2696.43C13891.8,2696.72 13890.3,2696.58 13889.6,2695.43C13888.6,2693.24 13891,2691.33 13892.8,2690.5C13899.9,2688.86 13907.7,2690.39 13915,2690.39C13918.9,2690.71 13922.8,2690.98 13926.6,2691.18C13922.6,2689.34 13918.7,2687.38 13914.9,2685.32C13908.5,2681.36 13903.2,2678.34 13897.3,2674.25C13895.6,2672.96 13893.7,2671.15 13893,2669.14C13892.8,2666.26 13896.8,2664.08 13899,2666.12C13906.8,2668.21 13913.8,2671.81 13921.2,2674.67C13931.2,2678.52 13941.8,2679.65 13952.1,2682.18C13970.6,2686.54 13989.4,2690.87 14008.4,2693.41L14008.4,2693.41C14014.2,2693.75 14019.9,2694.18 14025.7,2694.78C14026.3,2694.92 14026.9,2695.08 14027.5,2695.29C14029.1,2695.39 14030.7,2695.46 14032.2,2695.52C14051.1,2696.75 14069.9,2693.22 14088.7,2694.37C14097.1,2694.75 14105.6,2691.95 14113.9,2694.33ZM14036,2718.45C14036.3,2718.46 14036.6,2718.47 14037,2718.47C14023.2,2715.9 14009.5,2712.59 13995.9,2709.31C13991.6,2708.9 13987.3,2708.47 13983,2708.11C13985.6,2709.58 13988.3,2710.96 13991,2712.15C14005.5,2716.67 14020.9,2717.13 14036,2718.45ZM13399.9,2712.43C13401.1,2717.25 13399.1,2723.25 13392.9,2727.6C13386.6,2731.94 13379.3,2734.73 13372.3,2737.86C13351.8,2746.33 13327.5,2752.87 13308.1,2761.23C13292.3,2767.06 13275.9,2770.18 13259.2,2771.66C13245.6,2773.53 13232.3,2777.02 13218.5,2776.69C13209.2,2776.47 13200.3,2773.59 13191.1,2772.4C13189,2773.07 13186.2,2772.87 13185,2770.77C13183,2767.29 13186.8,2763.55 13190.4,2762.82C13203.1,2760.38 13216.4,2763.77 13229.1,2760.62C13238.8,2758.23 13248.4,2755.41 13258,2752.51C13255.6,2752.41 13253.3,2752.25 13250.9,2752.05L13251.5,2752.08C13243.7,2751.62 13236.1,2750.31 13228.4,2748.78C13224,2747.7 13218.7,2746.43 13215.2,2743.08C13209.9,2744.59 13210.2,2739.1 13214.4,2737.45C13218,2733.75 13224,2733.8 13228.9,2733.25C13237.3,2732.7 13245.5,2730.98 13253.6,2728.76C13274.2,2724.49 13295,2720.99 13315.6,2716.84C13339.8,2711.69 13363.7,2704.3 13388.3,2702.16C13394.3,2701.97 13400,2705.95 13399.9,2712.31L13399.9,2712.43ZM13448.4,2605.37C13464,2606.5 13468.2,2628.16 13445.3,2637.39C13427.7,2644.74 13410.4,2648.4 13393.2,2656.21C13365.9,2666.05 13338.4,2677.81 13308.9,2678.53C13291.3,2680.3 13273.6,2680.09 13255.9,2680.15C13243.1,2680.57 13230.3,2680.81 13217.5,2679.97C13182.7,2678.98 13150.9,2674.46 13116.4,2676.3C13090.1,2678.64 13063.9,2683.74 13037.5,2684.32C13024.9,2683.89 13012.7,2681.05 13000.5,2678.48C12988.8,2675.85 12976.9,2673.61 12965.9,2668.72C12965.1,2668.71 12964.2,2668.4 12963.8,2667.6C12963,2666.32 12963.9,2664.88 12964.9,2664.02C12967.7,2660.17 12973.8,2660.09 12979.8,2660.63C12979.9,2657.37 12981.4,2653.85 12982.5,2651.22C12993.9,2626.82 13018.1,2611.16 13042.7,2602.11C13048.7,2599.6 13054.9,2597.28 13061.1,2595.12C13061.9,2594.62 13062.7,2594.1 13063.5,2593.59C13102,2570.51 13145.4,2556.39 13189.5,2556.83C13223.4,2557.57 13256.9,2552.66 13290.6,2550.51C13320.3,2547.55 13349.7,2550.76 13376.5,2561.8C13383.9,2564.79 13391.3,2567.93 13397.8,2572.64C13410.9,2579.36 13425.2,2583.74 13436.7,2593.36C13440.8,2596.42 13445.3,2599.69 13447.9,2604.18C13448.1,2604.57 13448.2,2604.96 13448.4,2605.37ZM13560.4,3137.29C13561.2,3139.31 13561,3141.44 13559,3143.63C13558.2,3144.58 13557.2,3145.38 13556.1,3145.97C13556.1,3145.98 13556.1,3145.98 13556.1,3145.98C13552.8,3149.38 13548.2,3151.71 13543.9,3151.37C13530.7,3150.56 13519,3143.98 13507.2,3138.85C13490.4,3130.39 13472.6,3123.51 13456.4,3113.8C13454.7,3114.56 13453.2,3113.65 13452.6,3112.29C13451.1,3111.89 13449.7,3111.45 13448.2,3110.99C13446.8,3110.07 13446.8,3108.21 13447.5,3106.86C13448.8,3103.98 13452.1,3103 13455,3102.43C13475.4,3101.65 13497,3098.52 13516.5,3106.43C13529.1,3111.35 13541.6,3118.47 13551.7,3127.39C13553,3127.74 13554.2,3128.15 13555.4,3128.66C13559.3,3130.89 13560.7,3134.05 13560.4,3137.29ZM13693.3,3161.19C13704.3,3162.97 13703.2,3174.97 13695.4,3180.32C13684.5,3188.52 13669.9,3191.14 13656.6,3188.14C13647.3,3186.49 13634.8,3183.9 13631.6,3173.59C13629.9,3173.63 13628.9,3172.11 13629.4,3170.56C13630,3168.38 13632.2,3167.76 13634.3,3167.67C13640.6,3163.94 13648.6,3166.09 13655.6,3165.17C13668.2,3164.42 13680.6,3159.17 13693.3,3161.19ZM13815.8,3081.46C13826.1,3079.14 13887.6,3066.92 13876.8,3089.75C13874.6,3093.12 13871.8,3094.32 13868.6,3094.78C13868.1,3096.69 13866.9,3098.46 13865.5,3099.72C13848.2,3114.59 13826.9,3120.5 13805.5,3125.83C13785.9,3130.44 13766,3135.86 13745.7,3134.76C13744.3,3134.69 13742.8,3134.59 13741.4,3134.47C13735.4,3139.1 13729.5,3143.69 13723.2,3147.85C13719,3150.53 13712.9,3155.41 13708.3,3151.27C13704.6,3145.58 13712.3,3139.47 13715.2,3135.03C13723.6,3125.03 13731.6,3114.38 13742.1,3106.39C13751.2,3099.48 13762.2,3096.1 13773,3093.03C13786.9,3088.95 13801.9,3084.17 13815.8,3081.46ZM14222.6,3244.57C14222.1,3272.68 14196.2,3310.17 14175.9,3328.97C14173.8,3344.15 14171.8,3359.33 14169.8,3374.52C14168.6,3385.16 14159.7,3391.85 14152.8,3399.16C14141.6,3409.26 14129.8,3418.9 14117.8,3428.04C14109.5,3433.86 14100.6,3438.55 14092.6,3444.7C14089,3447.72 14085.3,3450.65 14081.6,3453.49C14073.5,3463.42 14064.7,3472.97 14054.2,3480.34C14047.9,3484.65 14041.6,3488.86 14035.2,3492.96C14010.5,3508.63 13984,3520.37 13957.5,3532.31C13948.6,3537.01 13939.6,3541.39 13930.1,3544.5C13921.8,3547.43 13914.2,3551.98 13905.9,3554.91C13898.4,3557.34 13890.8,3559.64 13883.2,3561.78C13874.2,3563.63 13865.8,3565.12 13857.3,3567.94C13857.2,3567.98 13857.1,3568.01 13857,3568.06C13857,3568.1 13857,3568.13 13857,3568.17C13855.8,3568.57 13854.7,3568.97 13853.6,3569.36C13853.6,3569.39 13853.5,3569.4 13853.5,3569.42C13850.6,3570.55 13847.7,3571.66 13844.7,3572.45C13842.7,3573.11 13840.6,3573.76 13838.6,3574.38C13837.5,3574.72 13836.4,3575.06 13835.3,3575.39C13834.7,3575.65 13834.2,3575.81 13833.6,3575.9C13823.4,3578.9 13813.2,3581.5 13802.8,3583.55C13791.5,3585.76 13780,3587.17 13768.5,3588C13757.3,3588.81 13746,3589.07 13734.8,3589.47C13720.8,3589.99 13706.9,3591.38 13693,3592.54C13682,3593.44 13671,3594.3 13660,3594.63C13656.7,3594.72 13653.5,3594.77 13650.2,3594.77C13642.4,3594.77 13634.5,3594.51 13626.7,3594.05C13618.4,3593.58 13610.1,3592.89 13601.9,3591.52C13592.9,3590.01 13584,3588.07 13575.1,3586.15C13556.5,3582.13 13537.8,3578.26 13519.2,3574.12C13510,3572.06 13500.8,3569.96 13491.6,3567.53C13483.4,3565.33 13475.3,3562.79 13467.6,3558.99C13460.6,3555.49 13453.7,3551.69 13446.7,3548.04C13442.5,3545.84 13438.4,3543.59 13434.3,3541.16C13432.8,3540.25 13431.2,3539.28 13429.8,3538.26C13428.6,3537.49 13427.6,3536.5 13426.5,3535.72C13425.9,3535.36 13425,3534.96 13424.6,3534.37C13422.6,3531.57 13427.4,3527.84 13429.5,3529.5C13430,3529.72 13430.5,3530 13431,3530.24C13433.6,3530.93 13436.1,3531.89 13438.6,3532.88C13442.6,3534.48 13446.7,3536.12 13450.1,3537.44C13456.9,3540.02 13463.9,3542.08 13470.9,3543.89C13474.4,3544.78 13477.9,3545.53 13481.4,3546.45C13485.3,3547.48 13489.1,3548.76 13493,3549.99C13499.9,3552.18 13506.8,3554.35 13513.7,3556.43C13522.2,3559 13531,3560.93 13539.5,3562.55C13554.7,3565.34 13570,3566.84 13585.5,3567.33C13589.3,3567.37 13593.2,3567.37 13597,3567.37C13604.1,3567.37 13611.2,3567.37 13618.3,3567.54C13619.8,3567.55 13621.2,3567.58 13622.7,3567.63C13623.7,3567.65 13624.7,3567.68 13626.1,3567.74C13628.7,3567.79 13631.3,3567.86 13634,3567.94C13634.7,3567.95 13635.4,3567.97 13636.1,3567.99C13641.7,3568.11 13647.3,3568.23 13650.8,3568.32C13653.9,3568.4 13657,3568.47 13659.8,3568.53C13660,3568.54 13660.2,3568.54 13660.5,3568.55C13660.9,3568.56 13661.4,3568.57 13661.4,3568.57C13663.9,3568.64 13666.5,3568.72 13668.7,3568.77C13672.4,3568.86 13676.1,3568.95 13679.9,3569.06C13687.6,3569.17 13695.4,3569.3 13703.2,3569.26C13712.7,3569.22 13722.1,3568.63 13731.5,3567.52C13745.8,3565.55 13759.8,3562.49 13773.8,3559.47C13788.9,3556.24 13803.9,3553.32 13819.1,3550.79C13837,3547.81 13854.9,3545.31 13872.7,3542.07C13877,3540.72 13881.4,3539.45 13885.7,3538.08C13904,3533.22 13921.1,3525.22 13937.1,3515.21C13957.5,3505.7 13976.1,3495.32 13994.3,3482.37C14006.8,3473.52 14020.4,3466.22 14033.3,3458.01C14034.9,3456.84 14036.6,3455.6 14038.2,3454.33C14037.7,3448.06 14038.1,3441.39 14036.7,3436.45C14035.2,3429.03 14033.1,3421.8 14030.5,3414.74C14029,3417.07 14027.7,3419.46 14026.2,3421.68C14021.3,3429.64 14014.8,3436.32 14008.6,3443.29C14009,3444.93 14008.2,3446.47 14006.9,3447.19C14006.8,3449.19 14004.7,3450.52 14002.4,3449.82C13992.9,3448.87 13992.7,3420.45 13989.2,3412.49C13981.2,3390.46 13968.8,3369.73 13952.1,3353.17C13944.8,3345.52 13935.4,3340.59 13927.1,3334.24C13910.1,3338.83 13893.3,3344.38 13876.5,3349.88C13873.6,3350.45 13870.7,3351.05 13867.8,3351.67C13864.1,3352.44 13860.4,3353.28 13856.7,3354.07C13855.9,3354.23 13855,3354.33 13854.3,3354.75C13854.1,3354.87 13853.9,3355.02 13853.7,3355.17C13842.9,3356.78 13832,3357.6 13821.3,3359.28C13802,3362.43 13782.8,3366.78 13763.2,3367.05C13750.2,3367.33 13737.2,3366.91 13724.3,3366.64C13700.7,3365.81 13677.1,3364.1 13653.5,3365.84C13620.7,3369.08 13588,3376.53 13554.9,3376.53C13551.7,3376.53 13548.4,3376.46 13545.1,3376.3C13523.3,3374.87 13501.4,3373.47 13479.5,3372.03C13476.1,3371.77 13472.7,3371.29 13469.4,3370.66C13467.3,3372.62 13465.1,3374.61 13463.1,3376.84C13451.1,3390.66 13437.3,3402.93 13426.8,3417.97C13420.3,3428.27 13413.4,3438.67 13410,3450.52C13404.6,3470.98 13404.8,3492.41 13410.5,3512.69C13415.7,3515.34 13419.5,3520.81 13420.1,3526.59C13421.4,3533.38 13415.3,3540.25 13408.2,3538.01C13387.9,3531.77 13371.2,3517.26 13354.7,3504.19C13337.3,3489.72 13319.6,3476.56 13300.5,3464.8C13288.2,3457.92 13276.6,3449.73 13263.9,3443.39C13252.8,3438.39 13245.1,3433.78 13236.3,3426.83C13228.6,3420.58 13222.9,3412.26 13217.5,3404.05C13208.6,3391.62 13202.4,3377.59 13199.4,3362.6C13198,3357.72 13197.3,3352.75 13197,3347.75C13187.4,3357.8 13176.6,3366.94 13162.3,3363.91C13135,3354.16 13163,3277.18 13168.4,3256.77C13176.9,3225.16 13188.2,3193.23 13210.8,3168.73C13217.7,3160.39 13225.5,3153.03 13233.3,3145.49C13250.7,3125.93 13269.2,3107.3 13290.1,3091.41C13297.9,3084.8 13304.4,3077.96 13311.1,3071.31C13310.3,3070.56 13310,3069.24 13311.1,3067.55C13319.5,3059.68 13329,3051.29 13335.6,3042.05C13342.7,3033.24 13357.5,3016.25 13369.4,3018.5C13372.9,3019.15 13377.9,3019.89 13379.8,3021.49C13399.1,3032.65 13377.8,3059.56 13372,3073.13C13362.6,3090.92 13350.8,3107.42 13339.2,3123.81C13325.4,3142.5 13310.7,3161.47 13306.3,3184.82C13299.7,3203.08 13296.8,3222.27 13293.6,3241.35C13288.3,3262.95 13274.6,3281.63 13259.8,3298.01C13263.2,3306.26 13267.1,3314.24 13272.4,3321.43C13276.9,3327.22 13281.9,3332.56 13286.2,3338.39C13288.9,3342.09 13291.3,3345.95 13294.5,3349.13C13306.3,3347.07 13317.1,3340.74 13329,3338.93C13329.1,3338.91 13329.2,3338.9 13329.3,3338.89C13330.8,3338.33 13332.3,3337.78 13333.8,3337.23C13349.5,3331.63 13366.2,3330.18 13382.4,3326.93C13399.8,3323.96 13417.5,3322.33 13435,3319.72C13454.8,3316.59 13474.9,3314.49 13495,3315.56C13520,3316.01 13544.8,3319.79 13569.6,3322.91C13581.1,3323.94 13592.4,3325.85 13603.6,3328.63C13609.3,3329.24 13615,3329.72 13620.8,3330.02C13638.5,3330.01 13651.7,3328.01 13668.2,3324.5C13682.3,3322.74 13696.2,3319.53 13710.4,3318.98C13721.3,3317.28 13732.1,3315.37 13743.2,3314.87C13767.2,3312.41 13791.3,3311.57 13815.3,3309.63C13815.4,3309.62 13815.4,3309.61 13815.5,3309.6C13821,3308.68 13826.6,3308.24 13832.1,3308.03C13839.4,3307.25 13846.6,3306.29 13853.9,3305.1C13876.9,3302.19 13899.4,3296.12 13922.5,3294.45C13947.5,3292.05 13972.2,3285.83 13997.4,3288.55C14021.6,3290.65 14044.7,3298.32 14068.8,3300.6C14086.1,3304.74 14107.5,3303.39 14124.1,3304.52C14129,3304.74 14133.8,3304.96 14138.7,3305.27C14138.7,3295.38 14139.3,3285.48 14141.7,3275.86C14149.8,3248.09 14144.2,3226.89 14126.6,3204.54C14108.4,3181.12 14089.4,3158.08 14068.1,3137.36C14058.9,3128.07 14052.2,3116.86 14045.1,3105.93C14041,3102.15 14036.9,3098.3 14032.9,3094.33C14010,3072.3 13990.6,3046.2 13970.1,3021.87C13966.6,3017.58 13963.1,3013.33 13959.8,3008.85C13957.5,3005.25 13953.8,3001.6 13954.5,2997.04C13955.9,2991.81 13962.2,2991.27 13966.4,2993.47C13968.1,2994.4 13969.8,2995.35 13971.4,2996.34C13976.2,2998.33 13980.7,3001.63 13985.1,3003.89C13998.7,3012.25 14013.5,3018.35 14026.1,3028.11C14030.9,3032.57 14034,3038.27 14036.9,3044.08C14045.1,3050.73 14053,3057.74 14060.3,3065.47C14066.8,3072.59 14072.5,3080.35 14079.1,3087.41C14106.1,3118.17 14135,3147.36 14167.1,3172.78C14188.3,3190.83 14222.2,3214.67 14222.6,3244.57ZM14407.5,3259.85C14411.2,3259.27 14417.2,3261.06 14416.8,3265.92C14414.9,3283.39 14413.2,3300.97 14410,3318.24C14406.6,3331.49 14401.5,3344.19 14396.3,3356.83C14386.7,3380.98 14375.9,3404.66 14364.3,3427.95C14355.6,3444.59 14346.1,3460.78 14338.3,3477.88C14321.1,3513.95 14300.7,3548.45 14284.7,3585.1C14274.7,3609.19 14265,3633.41 14254.9,3657.47C14247.5,3675.81 14238,3693.29 14231.3,3711.93C14223.7,3731.27 14218.4,3751.62 14208.7,3770.06C14195.2,3793.74 14179.1,3816.16 14165.3,3839.59C14150.4,3867.05 14131.8,3892.01 14113.1,3916.94C14102.3,3931.3 14093,3946.64 14086.4,3963.36C14080,3978.71 14069.3,3991.94 14057.4,4003.52C14050.2,4009.63 14028.6,4039.25 14021.9,4035.65C14018.4,4033.56 14022.6,4028.41 14025.8,4029C14042.5,4014.64 14053.8,3995.51 14062.8,3975.59C14067.6,3962.14 14069.1,3947.75 14075.9,3934.94C14080.4,3923.45 14086.3,3912.55 14091.2,3901.2C14099.4,3880.6 14105,3859.13 14111.1,3837.86C14118.7,3809.23 14134.5,3784.82 14149.1,3759.48C14159.5,3742.33 14166.2,3723.31 14177.1,3706.49C14192.5,3679.92 14210.5,3655.11 14227.2,3629.36C14237.8,3611.18 14248.2,3592.85 14257.3,3573.86C14269,3551.8 14279.3,3529.15 14289.1,3506.22C14298,3483.91 14307.1,3461.51 14319.3,3440.74C14334.8,3414.32 14347.9,3386.56 14362.2,3359.49C14372.5,3340.29 14385.5,3322.29 14391.9,3301.26C14394.1,3290.09 14396.4,3278.95 14398.2,3267.74C14398.9,3263.41 14403.4,3260.47 14407.5,3259.85ZM13887.5,3660.92C13889.1,3676.11 13866.4,3681.35 13855.8,3687.33C13820.8,3701.72 13786.2,3717.63 13748.9,3725.33C13727.5,3729.2 13705.2,3733.88 13683.6,3729.11C13664.7,3724.58 13645.4,3721.58 13626.1,3719.43C13614,3718.13 13602,3714.94 13591.7,3708.45C13588.4,3708.64 13588.5,3705.25 13590.2,3703.34C13590,3703.34 13589.7,3703.36 13589.4,3703.38C13584.7,3703.91 13586.2,3697.64 13589.9,3697.18C13591.3,3696.87 13592.2,3697.68 13593.1,3698.44C13595.9,3699.81 13599.2,3699.43 13602.2,3699.13C13628.1,3698.65 13653.8,3695.18 13679.7,3694.75C13699.5,3694.16 13719.2,3692.27 13738.3,3687.16C13754.7,3681.81 13771.6,3677.41 13788.8,3675.88C13807.8,3675.67 13826.4,3672.09 13844.7,3667.49C13849.3,3664.94 13854,3662.47 13858.8,3660.15C13863.6,3657.96 13868.6,3656.14 13873.5,3654.19C13879.1,3651.99 13886.4,3654.37 13887.5,3660.92ZM13240,3607.87C13240.2,3610.78 13238.4,3613.95 13235.2,3613.62C13226.8,3612.52 13223.4,3598.51 13221.1,3591.57C13219.3,3582.37 13216.8,3573.34 13213.3,3564.62C13210.9,3558.65 13208.2,3552.79 13205.5,3546.94C13204.3,3544.3 13203.7,3541.28 13204.4,3538.43C13208.3,3526.34 13224.1,3532.86 13227.7,3541.79C13235.7,3557.14 13239.6,3574.22 13239.4,3591.52C13239.7,3596.96 13239.8,3602.43 13240,3607.87ZM13200.7,3782.65C13205.3,3794.87 13190.2,3796.09 13185.7,3786.14C13176.5,3766.57 13166.4,3747.49 13156.5,3728.28C13147.1,3709.3 13139.4,3689.52 13131.8,3669.8C13120.7,3641.1 13115.7,3610.08 13100.4,3583.05C13078.4,3537.99 13048.8,3496.71 13031.1,3449.55C13016.2,3411.97 13010.8,3371.49 12997.4,3333.47C12988.9,3313.84 12984.7,3292.89 12980,3272.15C12978.2,3263.98 12971.5,3254.63 12975,3246.44C12977.1,3243.52 12981.4,3247.42 12980.9,3250.22C12979.2,3257.37 12982.4,3265.11 12984.5,3271.97C12998.3,3301.62 13013,3330.86 13025.4,3361.18C13036.6,3385.34 13050.9,3407.99 13060.8,3432.8C13082.9,3479.74 13098.6,3529.13 13116.2,3577.8C13128,3604.87 13137.7,3632.71 13148.1,3660.16C13160.7,3690.06 13176.6,3720.64 13187.5,3750.87C13191.8,3761.53 13196.3,3772.07 13200.7,3782.65ZM15811.1,4778.23C15811.2,4780.77 15808.7,4781.85 15807.1,4780.44C15807.6,4783.28 15806,4786.35 15802.3,4785.01C15786,4777.41 15773.1,4764.19 15758.5,4753.93C15738.8,4739.69 15717.5,4727.71 15699.5,4711.28C15692.3,4705.2 15686.1,4698.26 15680.4,4690.84C15686.6,4726.01 15690.7,4761.36 15687.9,4797.32C15685.8,4857.16 15673.4,4916.02 15663.1,4974.86C15657.1,5011.2 15652,5047.76 15643.1,5083.55C15634,5119.82 15625.6,5156.38 15613.6,5191.85C15601.5,5228.3 15579.5,5260.18 15560.7,5293.36C15547.2,5317.66 15530,5339.41 15513.6,5361.73C15505.2,5374.51 15497.1,5387.59 15487.6,5399.63C15480.2,5409.27 15472.2,5418.41 15465.6,5428.6C15451.3,5451.8 15445.7,5478.08 15440.1,5503.97C15436.5,5523.71 15432.9,5543.45 15429.1,5563.16C15428.2,5567.76 15426.9,5572.33 15424.8,5576.52C15423.8,5578.42 15422,5580.4 15419.8,5580.83C15421.1,5584.33 15419.8,5589.02 15415.8,5587.65C15401.2,5583.09 15403.4,5557.47 15408.7,5532.36C15409.3,5525.01 15409.7,5517.66 15409.9,5510.29C15410.1,5491.95 15408,5473.73 15408.4,5455.4C15408.5,5449.22 15408.9,5443.05 15409.4,5436.9C15403.2,5447.04 15396.7,5457.02 15389.9,5466.78C15359,5514.75 15321.9,5558.06 15287,5603.14C15275.4,5617.52 15266.8,5633.93 15255.3,5648.41C15243.9,5663.38 15230.7,5676.7 15216.9,5689.42C15210,5695.97 15203.3,5702.7 15196.6,5709.33C15180,5726.75 15157.2,5734.95 15137.9,5748.48C15125.7,5757.8 15114.1,5767.73 15102.4,5777.58C15092.2,5786.2 15081.8,5794.93 15074.3,5806.08C15077.9,5811.19 15072.5,5816.16 15069,5809.78C15063.6,5805.08 15063.7,5798.93 15066.6,5792.45C15066.5,5792.45 15066.4,5792.45 15066.2,5792.44L15066.3,5792.43C15053.9,5787.49 15069.7,5768.89 15072.9,5761.52C15083.8,5740.27 15097.1,5720.41 15110,5700.35C15119.9,5685.08 15127.8,5668.85 15135.3,5652.34C15138.3,5629.88 15138.5,5607.04 15140.2,5584.37C15137.7,5592.32 15135,5600.25 15132.2,5608.14C15126.9,5624.96 15122.2,5641.99 15114.9,5658.11C15093.9,5703.12 15062.9,5742.81 15031.8,5781.26C15030.9,5782.41 15030,5783.58 15029.1,5784.76C15019.5,5803.02 15009.3,5820.89 14998.7,5838.57C14986.4,5861.66 14974.9,5885.13 14960.9,5907.25C14961.9,5907.98 14963.4,5907.92 14964.2,5909.05C14965.9,5910.73 14965.8,5915.58 14962.6,5914.9C14961.9,5914.78 14961.4,5914.4 14960.8,5914.03C14960.6,5913.9 14960.4,5913.75 14960.1,5913.6C14959.5,5914.3 14958.5,5914.62 14957.3,5914.32C14957.2,5914.73 14957.1,5915.13 14956.9,5915.55C14956.2,5918.02 14959,5920.05 14957.2,5922.37C14956.3,5923.59 14954.7,5923.39 14953.6,5922.44C14947.8,5917.3 14950.1,5908.12 14951.8,5901.65C14954.9,5889.15 14960,5877.25 14963.5,5864.84C14968.4,5846.68 14970.6,5828.03 14973.2,5809.41C14972.9,5805.91 14973.3,5802.37 14974.6,5799.04C14975.5,5793.17 14976.4,5787.32 14977.5,5781.51C14983.2,5750.55 14991,5719.65 14990.2,5687.96C14989.9,5657.06 14986.4,5626.33 14983.9,5595.56C14983.8,5615.7 14983.4,5637.81 14982.9,5662.65C14981.2,5732.81 14964.4,5801.26 14944.3,5868.16C14933.8,5909.06 14925,5951.1 14901.8,5987.1C14901.6,5988.89 14900.3,5990.53 14898.6,5989.91C14895,5990.1 14893.2,5987.21 14892.8,5984.06C14890.5,5991.14 14888,5998.18 14885.4,6005.16C14879.5,6020.77 14871.9,6035.6 14861.1,6048.39C14856.9,6053.02 14847.8,6065.89 14842.1,6060.6C14839.7,6057.94 14841.8,6053.43 14843.9,6051.27C14854.7,6021.46 14854.6,5989.06 14859.9,5958.03C14862.7,5939.59 14865.5,5921.09 14867.8,5902.54C14867.6,5901.46 14867.8,5900.46 14868.2,5899.45C14869.4,5889.09 14870.5,5878.72 14871.3,5868.35C14868.7,5849.63 14859.8,5831.2 14853.9,5813.61C14846.1,5793.62 14840.7,5772.84 14832.5,5752.99C14824.2,5731.09 14813.4,5710.35 14801,5690.46C14784.6,5666.78 14766.5,5644.36 14750.4,5620.44C14719.6,5570.11 14687.3,5520.63 14658,5469.38C14630.6,5426.18 14606,5381.57 14579.2,5338.03C14556.3,5300.35 14529,5265.45 14508.2,5226.54C14510.4,5234.42 14512.8,5242.24 14515.4,5250.02C14524,5275.48 14532.1,5301.13 14542.3,5326.02C14550.8,5348.81 14559,5371.66 14568.5,5394.05C14576.3,5413.58 14583.6,5433.31 14594.5,5451.37C14611.7,5478.88 14631.1,5504.76 14650.9,5530.38C14657.6,5537.99 14664,5546.04 14671.9,5552.38C14678,5554.08 14677.8,5566.9 14669.8,5562.85C14663.7,5559.6 14658.5,5555.17 14653.9,5550.12C14632.4,5529.94 14616.4,5505.18 14598.6,5481.85C14588.3,5469.11 14577,5457.3 14566.5,5444.78C14537.1,5411.11 14513.4,5372.93 14496.4,5331.59C14483.9,5300.61 14476.3,5268 14467.6,5235.83C14456.1,5189.89 14446.4,5143.51 14434.5,5097.67C14433.7,5094.12 14433,5090.56 14432.3,5087.02C14429.3,5090.5 14426.4,5093.97 14423.4,5097.42C14401.9,5123.39 14381.3,5150.05 14357.9,5174.37C14332.7,5200.58 14299.2,5216.56 14270.1,5237.76C14263.8,5242.71 14258,5248.15 14252.3,5253.85C14249.9,5256.2 14246.2,5260.24 14242.4,5260.21C14239.7,5260.19 14238.1,5256.7 14237.5,5254.46C14236.7,5251.08 14240.1,5249.63 14242.2,5251.99C14259,5234.59 14274,5215.7 14289.1,5196.88C14311.5,5169.86 14334.5,5143.35 14356.5,5115.96C14383.5,5084.27 14400.6,5045.98 14419.3,5009.17C14421.3,5005.09 14423.4,5001.01 14425.5,4996.96C14425.6,4995.77 14425.6,4994.59 14425.7,4993.4C14415.7,5007.01 14405.4,5020.48 14395.4,5034.05C14376.6,5059.87 14361.4,5088.13 14342.7,5114.09C14330.7,5131.34 14317.9,5147.89 14303.7,5163.44C14276.3,5193.52 14242.4,5216.63 14213.1,5244.65C14193.9,5262.23 14179.4,5284.48 14158.9,5300.64C14155,5303.68 14151.4,5307.26 14146.7,5308.86C14144.6,5309.37 14142.5,5308.84 14141.2,5306.95C14139.7,5305.03 14139.9,5302.15 14141.6,5300.4C14144.3,5297.02 14147.5,5294.01 14150.4,5290.8C14169.7,5267.51 14190.6,5245.46 14208.4,5220.99C14242.7,5170.14 14273.4,5116.78 14312.9,5069.56C14361.3,5011.38 14391.6,4942.37 14424.1,4874.73C14423.1,4876.23 14422,4877.74 14421,4879.27C14387.3,4926.17 14351.2,4971.82 14309.2,5011.65C14292.4,5027.23 14274.5,5041.4 14256.8,5055.83C14242.9,5067.35 14230.5,5080.53 14217.2,5092.76C14213.7,5096.17 14209.9,5099.32 14206.2,5102.4C14206,5102.76 14205.8,5103.11 14205.6,5103.47C14204.2,5106.25 14202.3,5110.31 14198.6,5109.82C14198.4,5109.72 14198.2,5109.63 14198,5109.53C14195.4,5112.3 14192.7,5115.06 14190.1,5117.87C14190.7,5120.63 14186.5,5124.83 14183.8,5123.41C14183.1,5124.32 14182.4,5125.26 14181.8,5126.23C14180.5,5128.26 14178.6,5131.03 14175.9,5129.65C14172.1,5126.37 14180.3,5120.82 14182.4,5118.48C14182.5,5118.43 14182.5,5118.39 14182.6,5118.33C14182.4,5118.26 14182.3,5118.19 14182.1,5118.1C14179.8,5116.44 14181.3,5112.99 14183.4,5111.75C14189.4,5103.88 14195.6,5096.07 14201.8,5088.24C14206.2,5080.49 14210.9,5072.85 14215.5,5065.17C14220.7,5056.68 14225.7,5048 14230.5,5039.28C14230.6,5036.18 14231.5,5032.95 14233,5030.32C14236.8,5023.94 14240.5,5017.52 14244.3,5011.15C14248.7,5002.17 14253.5,4993.37 14258.7,4984.77C14267.4,4969.52 14275,4953.64 14283.3,4938.12C14283.7,4937.4 14284.2,4936.85 14284.8,4936.49C14290.6,4921.81 14295.4,4906.72 14299.2,4891.5C14307.2,4862.48 14309.9,4832.35 14305.4,4802.49C14298,4758.02 14295.8,4712.28 14305.7,4668.02C14313.2,4631.91 14333.2,4600.35 14350.5,4568.36C14370.6,4533.28 14388.6,4497.1 14405,4460.16C14412.1,4444.82 14419.8,4429.74 14425.9,4413.91C14427.3,4409.44 14429.1,4405.13 14431,4400.92C14431.5,4384.19 14440.2,4361.85 14439.9,4348.18C14440.9,4340.69 14439.8,4333.71 14437.6,4326.97L14437.6,4326.96C14436.4,4323.8 14435.1,4320.65 14433.9,4317.47C14426.9,4302.18 14416.3,4287.6 14414.1,4270.6C14406,4241.03 14412.3,4210.08 14408.7,4179.86C14407.9,4165.57 14409.8,4150.17 14409.4,4135.31L14409.4,4135.3C14406.7,4128.48 14403.6,4121.83 14400.1,4115.44C14400.1,4115.36 14400,4115.3 14399.9,4115.23C14398.9,4115.87 14397.6,4116.01 14396.6,4115.17C14392.2,4111.19 14387.6,4107.43 14383.2,4103.55C14382.9,4103.14 14382.8,4102.69 14382.7,4102.22C14382.7,4102.22 14382.8,4102.22 14382.8,4102.2C14382.6,4101.09 14383.1,4099.98 14383.9,4099.14C14370.8,4087.75 14355.7,4078.41 14339.5,4072.38C14325.2,4068.29 14310.4,4069.22 14296.3,4073.88C14259.3,4089.62 14227.9,4116.27 14192.2,4134.78C14158.6,4152.79 14122.6,4166.08 14089.1,4184.48C14065.5,4201.5 14038,4209.79 14013.4,4224.88C14002.7,4231.09 13991.8,4236.86 13981,4243.04C13970.5,4249.38 13960.4,4256.4 13949.2,4261.55C13930.1,4270.12 13909.5,4275.15 13888.8,4278.06C13878.2,4279.5 13867.7,4279.82 13857,4279.92C13856.4,4279.94 13855.7,4279.98 13855,4280.01C13846.2,4283.32 13837.4,4286.43 13828.3,4288.77C13811.3,4293.47 13797.2,4296.07 13780.2,4296.88C13768,4297.33 13755.9,4295.86 13743.8,4295.6C13722.8,4294.88 13701.9,4292.11 13681,4291.05C13658.1,4288.7 13634.7,4288.1 13612.5,4281.28C13588,4273.35 13564.6,4262.34 13543.5,4247.54C13536.2,4243.04 13528.1,4239.89 13521.3,4234.83C13515.6,4230.6 13511.1,4224.89 13506.2,4219.8C13502,4214.73 13496.2,4209.02 13492.9,4203.61C13482.4,4191.3 13477.2,4179.11 13472.9,4164.3C13471.4,4159.44 13469.3,4154.59 13469.1,4149.49C13469.9,4138.39 13483.6,4137.96 13492,4139.6C13494,4139.86 13495.9,4140.42 13497.4,4141.94C13497.5,4142.06 13497.6,4142.19 13497.7,4142.31C13510.3,4143.27 13522.3,4145.39 13535,4145.63C13556,4145.61 13576.3,4141.6 13597.2,4142.86C13630.2,4143.12 13663.2,4146.75 13696.2,4145.69C13708.9,4144.52 13721.5,4141.88 13734.1,4139.77C13758,4135.97 13776.8,4134.36 13799.6,4132.72C13815.4,4132.32 13833.8,4129.72 13849.1,4129.88C13869.5,4128.19 13890.2,4128.07 13910.1,4122.96C13942,4115.94 13972.6,4104.64 14003.1,4093.12C14022.3,4086 14041.5,4078.82 14059.9,4069.87C14085.5,4057.21 14107.9,4039.2 14130.8,4022.3C14149,4007.61 14166,3991.49 14184.8,3977.55C14218,3950.5 14250.8,3926.4 14280.6,3895.92C14301,3876.42 14317.6,3853.43 14336.6,3832.64C14349.4,3820.03 14360.7,3805.94 14372.4,3792.23C14386.6,3777.32 14399.9,3761.43 14413,3745.51C14424.4,3730.61 14435.9,3715.75 14447.4,3700.96C14461.5,3681.96 14474.9,3662.38 14489.8,3643.93C14492.9,3636.56 14496,3629.19 14499.5,3621.99C14506.8,3606.39 14515.1,3591.28 14522.4,3575.66C14527.8,3561.86 14531.7,3547.53 14537.2,3533.79C14542.6,3521.04 14547.4,3508.1 14551.5,3494.93C14551.5,3494.92 14551.5,3494.9 14551.5,3494.89C14559,3466.23 14565.7,3437.33 14572.3,3408.45C14580.7,3374.59 14587,3340.29 14593.5,3306.07C14598,3270.67 14600.8,3235.1 14606.2,3199.82C14611.5,3164.79 14599.8,3130.83 14596.1,3096.35C14593,3072.91 14591.2,3049.3 14588.9,3025.76C14585.9,2996.88 14584.3,2968.67 14586.8,2939.79C14589.4,2915.14 14594.2,2890.73 14595.8,2865.95C14598.4,2829.25 14596.1,2791.75 14585.8,2756.31C14574.9,2727.86 14559.3,2696.29 14550,2668.49C14527.9,2608.86 14508.1,2548.26 14482.5,2489.95C14468.3,2458.84 14454.1,2427.71 14441.9,2395.74C14427.3,2361.77 14414.4,2327.14 14406.1,2291.07C14398.7,2267.59 14391.5,2243.86 14381.4,2221.32C14333.6,2161 14274.5,2109.72 14231,2045.81C14190.3,1993.38 14163.6,1929.09 14110.1,1887.55C14096.8,1877.75 14082.3,1869.8 14068.3,1861.17C14062.4,1857.41 14057.2,1852.6 14051.1,1849.25C14026.9,1831.97 14003.5,1814.5 13982.2,1794.27C13970.8,1784.04 13960,1773.1 13948,1763.48C13938.8,1756.46 13927.8,1748.93 13919.6,1743.73C13892.2,1726.71 13864.4,1710.02 13835.6,1695.36C13826.5,1690.64 13816.7,1687.11 13807.2,1683.26C13787.2,1675.66 13769,1663.93 13751.3,1651.95C13714.8,1625.97 13694.5,1610.46 13673,1569.46C13666.2,1557.61 13659.4,1546.24 13653,1534.2C13643.9,1515.45 13639.8,1494.67 13635.8,1474.35C13632.2,1460.57 13632.8,1446.33 13633.8,1432.29C13634.1,1424.93 13634.7,1417.48 13636.2,1410.23C13631.2,1424.19 13625.8,1437.46 13620.7,1451.47C13613.2,1469.5 13604.7,1487.16 13595.5,1504.36C13583.1,1525.36 13567,1543.27 13550.5,1560.89C13534,1580.55 13511.2,1593.4 13490.5,1607.92C13471.1,1621.4 13454.9,1633.76 13435.3,1645.67C13423.3,1652.53 13410.8,1658.51 13398.3,1664.59C13378.8,1672.92 13360.5,1683.5 13342.2,1694.26C13321.8,1706.34 13304,1715.15 13284,1725.83C13252.7,1741.81 13220.3,1755.52 13189.3,1771.96C13172.6,1780.99 13157.2,1791.99 13141.1,1802.14C13095.2,1833.02 13053.2,1869.48 13017.8,1912.05C13002.3,1928.59 12988,1946.34 12974.4,1964.38C12963.1,1976.94 12950,1998.43 12942.9,2010.5C12926,2039.13 12915,2070.65 12901.7,2101.02C12895.3,2118.19 12890.7,2135.95 12885.2,2153.4C12880.7,2167.92 12875.4,2182.14 12871.4,2196.84C12864.9,2224.02 12859.8,2251.55 12851.2,2278.2C12843.1,2304.01 12833.8,2329.58 12829.1,2356.3C12824.6,2381.28 12823,2406.66 12819.8,2431.83C12818,2456.02 12816.6,2480.21 12816.1,2504.43C12816.1,2504.45 12816.1,2504.46 12816.1,2504.48C12816.1,2507.19 12816,2509.91 12816,2512.62C12815.9,2520.47 12815.9,2528.32 12816.1,2536.19C12816.1,2538.35 12815.5,2540.48 12814.5,2542.46C12814.2,2546.77 12813.8,2551.08 12813.3,2555.38C12809.1,2590.74 12811.5,2626.77 12814.6,2661.75C12819.1,2705.14 12822.1,2750.23 12826.2,2793.29C12830,2832.09 12837.6,2870.38 12839.1,2909.4C12843.1,2953.22 12845.4,2995.98 12847.4,3039.5C12849.2,3074.36 12853,3108.96 12856.2,3143.67C12863.5,3200.6 12866.1,3257.99 12870.7,3315.17C12875.3,3348.92 12877.9,3383.2 12888.8,3415.69C12901.5,3449.98 12919.3,3481.88 12930.7,3516.57C12943.9,3549.72 12955.4,3583.73 12968.7,3616.89C12969.5,3618.14 12970.4,3619.38 12971.3,3620.62C12985.5,3637.37 12998.3,3655.24 13010.8,3673.23C13025.3,3690.99 13035.4,3711.5 13046.8,3731.19C13061.9,3754.5 13080.8,3774.68 13098.3,3795.53C13112.1,3813.98 13127.4,3831.03 13142.6,3848.23C13171.9,3884.04 13197.9,3922.53 13228.9,3956.94C13251.7,3980.8 13269.1,4009.15 13287.6,4036.1C13287.6,4036.11 13287.6,4036.12 13287.6,4036.14C13293.9,4043.1 13300.4,4049.89 13307.4,4056.1C13311.7,4059.93 13312.9,4066.41 13310.5,4071.63C13308.3,4076.5 13303.1,4078.62 13298.8,4075.38C13293,4071.25 13287.4,4066.96 13281.9,4062.53C13269.7,4058.62 13257.1,4055.75 13245.3,4050.53C13241.1,4048.59 13236.9,4046.74 13232.7,4044.9C13225.9,4061.08 13220.4,4078.06 13218.6,4095.58C13217.9,4104.82 13217.8,4114.11 13217.6,4123.38C13216.7,4153.27 13218.7,4183.12 13218.2,4212.98C13218.1,4212.98 13218.1,4212.99 13218.1,4212.99C13217.4,4265.34 13214.4,4316.76 13213.8,4368.97C13213.1,4409.04 13210.9,4449.17 13214.9,4489.16C13218.6,4515.11 13223.3,4540.9 13228.7,4566.55C13233.9,4586.55 13238.7,4606.74 13241.2,4627.29C13243.5,4648.41 13244.9,4669.58 13247.3,4690.68C13250.6,4710.41 13252.6,4733.43 13254.5,4752.83C13256.1,4764.93 13258.8,4776.84 13260.1,4788.97C13262.1,4805.36 13262.3,4821.92 13264.2,4838.33C13269.6,4882.53 13271.7,4928.03 13259.8,4971.39C13252.9,4996.05 13245.7,5021.05 13243.8,5046.69C13244.1,5062.39 13243.8,5078.39 13246.9,5093.83C13249.8,5107.05 13252.5,5120.16 13256.3,5133.07C13256.7,5133.75 13257.1,5134.43 13257.5,5135.11C13261.2,5141.48 13265.5,5148.02 13269,5154.32C13269.4,5155.65 13269.2,5157.51 13267.8,5158.24C13266.8,5158.84 13265.6,5158.29 13264.8,5157.4C13262.6,5158.46 13260.5,5155.76 13259.9,5154C13259.8,5153.8 13259.8,5153.58 13259.7,5153.35C13237.7,5134.05 13223.3,5108.07 13210.7,5081.97C13210.1,5080.73 13209.5,5079.5 13208.9,5078.26C13202.2,5072.15 13198.4,5062 13196,5050.83C13190.3,5038.53 13184.7,5026.18 13179.2,5013.78C13162.1,4971.9 13147.5,4928.69 13139.2,4884.14C13135.5,4865.5 13133,4846.77 13130.9,4828.03C13129.7,4830.65 13128.4,4833.18 13127.2,4835.61C13118.3,4854.92 13108.6,4873.76 13098,4892.18C13094.6,4898.91 13090.7,4905.31 13086.7,4911.68C13084.7,4921.95 13082.4,4932.07 13080.8,4942.48C13078.6,4955.53 13078.8,4968.77 13080.4,4981.88C13082.8,5005.88 13082.4,5030.09 13081.2,5054.15C13080.3,5069.18 13077.8,5084.1 13077.5,5099.16C13077.3,5113.64 13078,5128.12 13077.1,5142.59C13074.5,5171.52 13066.6,5200.71 13051,5225.4C13034.9,5252.29 13018.9,5279.14 13002.3,5305.75C12988.2,5330.24 12979.3,5357.22 12965.7,5381.91C12955.1,5400.48 12945.4,5419.51 12935.5,5438.44C12918,5467.19 12900.7,5496.59 12878.3,5521.85C12865.1,5535.95 12852.9,5550.99 12837.9,5563.22C12825.2,5572.81 12811.9,5581.44 12798.5,5589.87C12796.7,5604.73 12793.3,5619.43 12791.2,5634.24C12788.8,5651.42 12788.2,5668.78 12786.3,5686.02C12783.9,5706.86 12778.8,5727.29 12772.2,5747.18C12762.2,5780.44 12747.1,5811.82 12731.5,5842.72C12710,5883.32 12681.7,5919.9 12659.5,5960.11C12655.5,5967.24 12651.8,5974.5 12647.7,5981.55C12632.5,6006.28 12610.5,6025.93 12592.3,6048.36C12584.5,6057.37 12576.3,6065.95 12567.8,6074.34C12561.1,6080.77 12553.5,6090.43 12543.1,6087.6C12538.1,6086.09 12533.9,6082.78 12530.8,6078.55C12516,6070.48 12510.8,6052.35 12512.4,6036.28C12512.7,6018.47 12513.5,6000.69 12514.4,5982.89C12515,5950.52 12510.1,5918.32 12503.5,5886.71C12492.1,5836.52 12473,5788.8 12454.6,5740.88C12437,5742.03 12419.6,5745.47 12402.1,5746.3C12383.4,5746.82 12365.7,5740.97 12347.8,5736.6C12342.1,5735.08 12335,5734.19 12331.2,5729.25C12328.1,5728.5 12330,5724.49 12332.1,5723.46C12330.7,5722.84 12330,5720.81 12331.6,5718.98C12332.8,5714.51 12337,5713.42 12341.4,5713.09C12347.2,5709.33 12354.5,5708.87 12361.1,5707.35C12372.8,5704.91 12384.4,5702.36 12395.9,5699.15C12408.8,5694.98 12421.3,5689.77 12433.6,5684.05C12430.6,5675.31 12427.8,5666.54 12425.1,5657.7C12417.4,5630.29 12412.1,5602.27 12406.5,5574.37C12402,5555.7 12398.1,5536.92 12394.5,5518.07C12379.9,5494.11 12366.1,5469.62 12354,5444.35C12351.3,5480.56 12355.3,5516.9 12362.1,5552.53C12363.5,5558.69 12365.6,5564.63 12367.3,5570.72C12368.5,5572.74 12368.8,5575.41 12367,5577.07C12365.2,5578.87 12363.1,5577.99 12361.6,5576.1C12357.4,5572.46 12355.4,5566.82 12353.4,5561.73C12353,5560.64 12352.6,5559.54 12352.2,5558.44C12341,5539.44 12329.4,5520.24 12322.8,5499.09C12313.4,5474.16 12309.9,5447.87 12306.8,5421.57C12305.2,5411.26 12303.7,5400.91 12302.6,5390.53C12300.2,5396.11 12297.8,5401.65 12295.1,5407.08C12280.1,5436.44 12261.2,5463.68 12243.5,5491.46C12236.6,5503.24 12227.5,5513.44 12217.8,5522.99C12212.6,5529.43 12207.9,5536.2 12203.2,5543.07C12191.2,5558.81 12182.9,5577.16 12171.2,5593.04C12170.7,5593.94 12170.2,5594.84 12169.6,5595.73C12169.4,5597.23 12168.9,5598.86 12167.7,5599.14L12167.6,5599.2C12167.8,5601.22 12167,5603.51 12164.7,5603.46C12164.5,5603.46 12164.3,5603.45 12164.2,5603.44C12161.8,5605.18 12158.8,5603.06 12157.8,5600.56C12155.2,5593.61 12161.1,5587.08 12163.6,5580.9C12165.6,5576.71 12167.4,5572.36 12169.3,5568.05C12177.9,5546.27 12185.8,5524.24 12194.3,5502.44C12205.2,5477.49 12214.9,5452.07 12222,5425.79C12227.5,5402.07 12231,5377.99 12235.6,5354.13C12246.5,5292.27 12267.9,5232.24 12272.8,5169.38C12274.2,5143.45 12272.9,5117.35 12272.6,5091.64C12272,5054.02 12270.2,5016.45 12266.4,4979.01C12263.4,4947.67 12255.6,4917.19 12250.4,4886.24C12244.2,4842.82 12235.9,4799.78 12224.3,4757.46C12221.8,4748.17 12219,4739.05 12216.1,4730.05C12215.9,4769.4 12210.1,4808.73 12199.1,4846.64C12181.6,4924.67 12163.4,4944.34 12105.2,4996.64C12091.8,5008.9 12076.3,5019.13 12059.9,5026.57C12056.8,5027.82 12054.1,5022.5 12056.4,5020.46C12058.3,5019.05 12061.2,5018.68 12062.8,5017.23C12071.8,5008.5 12082.3,5002.66 12090.3,4993.26C12102.6,4977.43 12110.7,4960.24 12120.1,4942.81C12136.6,4912.1 12149.5,4879.98 12158.2,4846.22C12165,4822.67 12173.6,4799.54 12177.5,4775.27C12178.5,4766.27 12178.2,4757.27 12177.4,4748.26C12174.2,4719.75 12167.8,4691.77 12158.1,4664.78C12147.6,4634.32 12136.4,4597.39 12125.4,4568.51C12096.9,4485.87 12063.1,4404.06 12048.4,4317.48C12044,4284.8 12041.5,4251.66 12042.8,4218.67C12031.5,4248.09 12030.1,4279.94 12024.9,4310.74C12020.7,4339.21 12018.7,4367.94 12020,4396.71C12019.9,4413.16 12019.1,4429.68 12022.5,4445.9C12027.3,4467.5 12037.8,4487.2 12046.4,4507.42C12048.4,4511.28 12050.5,4515.1 12052.4,4519.02C12053.7,4520.6 12054.1,4523.34 12052.4,4524.45C12051.3,4525.18 12050.2,4524.96 12049.3,4524.12C12043.9,4521.39 12041.2,4515.04 12038.3,4509.99C12034.2,4502.2 12030.1,4494.38 12027.2,4486.05C12015.2,4461.07 12007.8,4434.42 11999.7,4408.04C11992.2,4384.47 11984.3,4360.79 11983.1,4335.88C11982.1,4322 11983.8,4308.07 11985.9,4294.36C11988.6,4275.34 11991.6,4256.32 11996.1,4237.63C12002.3,4208.43 12011.8,4180.11 12021.7,4151.99C12027.4,4137.89 12030.6,4122.86 12037.3,4109.13C12042.1,4097.43 12048.5,4086.48 12055.7,4076.09C12049.7,4061.73 12044.1,4047.18 12039.2,4032.37C12025.5,3986.4 12018.8,3938.51 12019,3890.54C12017.8,3852.99 12023.3,3815.7 12032.9,3779.49C12037.7,3759.2 12044.5,3739.52 12051.5,3719.91C12057.1,3701.43 12063.7,3683.28 12071.1,3665.46C12082.1,3636.36 12096.7,3608.84 12108.9,3580.23C12118.4,3557.4 12129.4,3535.28 12139.6,3512.78C12150.9,3488.2 12160.6,3462.92 12173.5,3439.12C12183.9,3421.12 12195,3403.56 12207.3,3386.89C12214.9,3376.26 12221.2,3364.8 12228.8,3354.22C12251.3,3322.22 12278.3,3293.71 12304.7,3264.98C12317.6,3251.41 12330.8,3238.01 12344.6,3225.45C12369.3,3199.28 12393.2,3172.26 12413.1,3142.22C12424.1,3127.49 12434.8,3112.55 12445.1,3097.35C12450.9,3071 12455.9,3044.51 12459.4,3017.75C12465.9,2940.98 12470.4,2863.52 12460.6,2786.8C12456.1,2750.89 12444.4,2716.65 12432.2,2682.79C12421.2,2656.33 12414,2628.65 12407.4,2600.84C12402.7,2584.75 12397.8,2568.8 12394.3,2552.33C12391.3,2535.07 12390.3,2517.49 12387.7,2500.13C12383.3,2474.01 12384.1,2447.51 12385.8,2421.16C12387.1,2391.25 12391.5,2361.59 12392.7,2331.67C12393.3,2289.38 12398.7,2247.37 12402.7,2205.3C12404.2,2192.76 12407,2180.48 12410.2,2168.25C12421,2123.22 12433.8,2078.34 12451.8,2035.63C12468.9,1996.39 12487.3,1957.62 12511.8,1922.4C12525.6,1900.8 12539.8,1879.5 12554.1,1858.22C12577.8,1821.91 12599.4,1784.07 12628.1,1751.34C12661.2,1716.65 12694.6,1681.66 12732.4,1651.77C12767.2,1624.66 12804.6,1600.99 12841.7,1576.95C12867.9,1558.44 12896.4,1543.76 12923.3,1526.27C12962.1,1500.4 12999.5,1472.21 13034.7,1441.55C13049,1428.5 13061.9,1413.88 13076.4,1401.05C13140.1,1344.14 13209.7,1293.87 13283.6,1251.07C13296.7,1243.2 13309.7,1235.06 13322.2,1226.25C13337.5,1215.11 13352.3,1203 13369.2,1194.38C13397.2,1180.55 13426.8,1170.26 13455.3,1157.54C13499.6,1140.69 13546.8,1132.25 13593.9,1127.97C13618.2,1127.04 13642.6,1124.83 13666.9,1125.89C13684.2,1126.85 13701.1,1130.21 13717.9,1134.22C13742.9,1140.36 13764.1,1155.54 13786.4,1167.85C13790.2,1170.21 13796.1,1173.25 13801,1176.88C13812.1,1173.21 13823.7,1170.67 13835,1167.65C13854.4,1162.14 13876.1,1156.64 13895.4,1154.34C13930.3,1149.9 13965.7,1150.44 14000.8,1153.41C14023.1,1155.3 14045.5,1154.74 14067.8,1156.45C14102.5,1159.5 14143.6,1168.38 14175.3,1179.29C14221.8,1193.72 14265.7,1215.18 14308.1,1239.08C14332.9,1253.18 14359.9,1262.89 14385,1276.6C14442.6,1303.7 14497.5,1337.6 14544.1,1381.28C14571.3,1406.05 14595.4,1433.98 14620.5,1460.76C14637.7,1479.48 14655.5,1497.66 14671.7,1517.28C14690.4,1539.38 14708.6,1561.89 14723.2,1586.98C14729.9,1597.32 14734.7,1608.8 14740.5,1619.63C14750.6,1637.62 14761.6,1655.06 14774.2,1671.41C14792.8,1693.52 14806,1719.28 14822.3,1743C14840.3,1769.13 14859.3,1794.86 14872.7,1823.75C14878.9,1836.25 14884.4,1849.07 14889.3,1862.12C14893.7,1872.41 14898.5,1882.56 14903.4,1892.6C14911.3,1909.97 14918.1,1927.85 14925.6,1945.39C14928.5,1953.63 14931,1963.01 14933.7,1972.27C14946.4,1988.58 14956.5,2006.77 14967.8,2024.04C14975.5,2036.16 14981.5,2049.16 14987.3,2062.21C14995.4,2080.93 15004.2,2102.15 15013.5,2119.84C15021.6,2133.82 15029.3,2143.87 15038.7,2156.35C15059.1,2184.52 15076.6,2214.71 15097,2242.92C15103.5,2251.69 15114,2258.31 15116.6,2269.35C15117.1,2273.79 15110.1,2272.08 15109.6,2269.07C15107.4,2259.3 15098.7,2252.6 15091.7,2246.05C15083,2239.24 15074.2,2232.32 15066.3,2224.54C15055.2,2213.99 15045.6,2202.13 15035.1,2191.02C15024.6,2179.22 15014.8,2166.92 15003.7,2155.7C14998.9,2151.36 14994.1,2147.03 14989.4,2142.68C14994.3,2152.84 14999.6,2162.76 15004.7,2172.82C15014.8,2195.9 15027.5,2217.75 15037.3,2240.91C15043.6,2254.34 15049.5,2267.94 15054.1,2282.03C15060.8,2302.47 15063.4,2323.96 15068,2344.88C15070.9,2363.07 15070.5,2381.57 15070.2,2399.92C15070.3,2411.11 15071.4,2422.21 15071.2,2433.37C15071.9,2451.51 15072.7,2469.63 15073.9,2487.73C15076.2,2507.94 15080.5,2530.39 15084,2549.56C15089.8,2572.01 15094.4,2594.78 15101.2,2616.99C15107.5,2637.26 15115.7,2657.31 15116.7,2678.76C15117.9,2691.42 15117.1,2704.12 15117.7,2716.8C15118,2729.08 15118.6,2741.4 15117.2,2753.62C15116.7,2771.17 15112.8,2788.31 15112,2805.84C15111.9,2810.62 15112,2815.42 15112,2820.22C15119.7,2826.38 15127.2,2832.73 15134.4,2839.42C15158.1,2860.89 15178.1,2886.12 15196.4,2912.24C15213.8,2935.47 15224.3,2962.65 15235.9,2988.99C15243.3,3008.45 15249.2,3028.5 15257.2,3047.79C15263.8,3064.38 15271.2,3080.81 15276.4,3097.9C15279.8,3110.88 15280.5,3124.25 15282.6,3137.44C15284.7,3150.16 15288.1,3162.72 15292.5,3174.82C15295.8,3181.16 15297.4,3188.16 15300.2,3194.7C15301.3,3198.28 15296.3,3199.45 15294.2,3197.06C15293.5,3196.42 15292.9,3195.35 15293.2,3194.44C15292.3,3189.74 15289.5,3185.58 15288.1,3181.08C15284.3,3168.36 15278.4,3157.2 15273.1,3145.21C15261.3,3121.25 15247.3,3098.29 15238.6,3072.92C15230.7,3055.01 15224.3,3036.42 15214.9,3019.16C15196.1,2988.45 15176,2958.62 15155.3,2929.15C15140.5,2907.19 15126.5,2884.56 15110.1,2863.75C15109.3,2883.5 15109.1,2903.27 15109.8,2923.05C15111.2,2936.76 15114.6,2950.19 15115.8,2963.93C15117.6,2979.19 15116.4,2994.43 15115.6,3009.68C15117.2,3025.05 15119.2,3040.37 15120.8,3055.74C15120.9,3057.32 15121,3058.89 15121.1,3060.48C15131.8,3074.91 15143,3088.84 15155.2,3101.96C15181.4,3130.21 15209.5,3156.79 15239.2,3181.37C15263.8,3199.88 15290,3216.32 15313.8,3236.06C15323.4,3243.95 15333.3,3251.42 15343.5,3258.47C15372.7,3267.88 15403.5,3271.95 15431.7,3284.6C15451.8,3292.99 15471.1,3303.35 15489.1,3315.8C15507,3327.67 15523.8,3341.41 15535.6,3359.63C15558.5,3389.59 15580,3423.36 15585.8,3461.25C15586.6,3466.84 15586.4,3472.59 15586.3,3478.22C15586.8,3490.17 15587.5,3502.34 15583.8,3513.85C15582.9,3519.08 15583.6,3526.16 15580.5,3530.4C15578.6,3531.98 15576.3,3529.75 15576,3527.67C15576.1,3521.21 15580.5,3515.18 15580,3508.47C15579.3,3501.16 15580.2,3493.85 15580.8,3486.57C15581.4,3478.01 15579.8,3469.65 15578.1,3461.28C15575,3443.55 15571.5,3425.2 15560.6,3410.42C15553,3400.97 15544.1,3392.66 15535.1,3384.49C15526.8,3376.76 15518.5,3368.8 15508.7,3362.88C15495.6,3355.48 15481.8,3349.33 15468.6,3341.92C15468.2,3341.66 15467.7,3341.41 15467.3,3341.15C15468.3,3341.97 15469.3,3342.8 15470.3,3343.62C15490.6,3359.81 15513.3,3373.85 15528.5,3395.39C15536,3406.34 15540.7,3418.74 15546,3430.82C15559.3,3452.63 15563.2,3478.13 15566.2,3503.07C15570,3540.75 15562,3578.15 15556.2,3615.21C15553.4,3634.21 15547.9,3652.71 15540.9,3670.53C15539.8,3673.5 15537,3676.09 15533.9,3674.87C15531.8,3673.79 15530.9,3670.16 15533,3668.73C15540.7,3642.62 15550.4,3615.89 15547.7,3588.28C15542.1,3554.4 15538.6,3518.86 15521.5,3488.43C15514.8,3477.54 15509.1,3465.78 15500.1,3456.55C15485.1,3443.46 15469,3431.81 15454.7,3417.97C15437.2,3402.67 15421.4,3385.24 15401.6,3372.87C15390.8,3366.76 15379.6,3361.64 15368.2,3356.79C15383.8,3372.54 15398.3,3389.44 15410.3,3408.09C15417.3,3419.21 15424.5,3430.49 15428.5,3443.02C15435.9,3459.95 15440.5,3477.72 15445.5,3495.45C15452,3521.21 15461.7,3546.33 15464.1,3572.97C15466,3589.28 15468.3,3605.52 15471.4,3621.63C15473.4,3638.21 15478.3,3655.12 15474.1,3671.73C15469.4,3693.53 15460.8,3714.34 15447.6,3732.37C15444.9,3737.11 15440.5,3740.87 15435.1,3742.27C15434.5,3744.16 15432.5,3746.03 15430.5,3746.03C15429.7,3746.03 15428.8,3745.84 15428.1,3745.5C15429.9,3749.3 15431.8,3753.11 15433.7,3756.91C15448.9,3794.14 15464.8,3831.09 15484.3,3866.32C15513.7,3921.1 15541.5,3977.1 15559.2,4036.86C15572,4077.62 15583.6,4118.99 15591.2,4161.1C15597.1,4201.03 15605.5,4240.57 15609.8,4280.74C15617.2,4326.51 15628.1,4380.52 15642.2,4422.6C15648.1,4439.77 15653,4457.23 15658.6,4474.45C15667.9,4500.6 15679.7,4525.46 15691.1,4550.34C15704.7,4578.24 15716,4606.72 15732,4632.8C15745.4,4652.02 15756.9,4672.56 15771.7,4690.75C15778.7,4699.33 15785.8,4707.82 15793,4716.3C15795.6,4719.5 15797,4724.43 15795,4728.32C15792.8,4732.35 15787.8,4732.38 15784.7,4729.44C15768.9,4713.81 15752.5,4698.73 15735.5,4684.42C15739.7,4690.71 15744.1,4696.86 15748.7,4702.85C15762.5,4721.05 15778.8,4737.27 15793.9,4754.41C15796.8,4757.53 15799.8,4760.54 15802.8,4763.59C15806,4767.08 15810.5,4770.61 15810.5,4775.77C15810.8,4776.57 15811,4777.39 15811.1,4778.23ZM15514.6,5247.56C15510.8,5254.57 15506.9,5261.5 15502.9,5268.35C15489.3,5291.06 15477.8,5314.91 15469.8,5340.12C15474.6,5330.72 15479.6,5321.45 15484.9,5312.32C15497.1,5291.71 15506.6,5269.93 15514.6,5247.56ZM15768.9,4750.6C15768.6,4750.3 15768.4,4750 15768.1,4749.7C15768,4749.69 15768,4749.67 15767.9,4749.66C15767.7,4749.58 15767.5,4749.49 15767.3,4749.4C15767.8,4749.8 15768.4,4750.2 15768.9,4750.6ZM15183.9,5647.77C15184.5,5646.09 15185.1,5644.4 15185.7,5642.7C15184.5,5644.42 15183.2,5646.15 15182,5647.88C15177.8,5653.88 15173.8,5660.04 15169.9,5666.27C15172.8,5662.39 15175.6,5658.5 15178.5,5654.66C15180.2,5652.33 15182.1,5650.04 15183.9,5647.77ZM15453.8,3671.9C15456,3648.86 15452.9,3626.08 15449.5,3603.35C15446.7,3588.72 15445.1,3573.57 15439.2,3559.81C15432.2,3543.84 15422.5,3529.35 15414.3,3514.07C15407.6,3504.73 15401.8,3494.82 15395.3,3485.32C15388.7,3476.7 15382.4,3467.86 15376,3459.07C15355.5,3437.42 15333.4,3417.5 15311.1,3397.81C15316.7,3403.92 15322.1,3410.27 15327.1,3416.86C15346.9,3443.69 15365.4,3471.43 15383.6,3499.42C15392.8,3514.68 15404.1,3530.43 15405.7,3548.65C15406.4,3568.4 15406,3588.18 15406,3607.95C15406.5,3620.59 15404.9,3664.08 15389.6,3670.55C15402.3,3693.14 15413.8,3716.38 15425.2,3739.63C15425.3,3739.54 15425.3,3739.44 15425.4,3739.35C15425.6,3739.18 15425.8,3739.01 15426,3738.84C15427.4,3736.63 15430.2,3736.91 15432.4,3737.93C15447.7,3720.13 15451.5,3694.67 15453.8,3671.9ZM15256,3352.09C15265.8,3358.24 15275.3,3365.06 15284.2,3372.47C15271.6,3359.68 15259.4,3346.43 15247,3333.32C15231.7,3318.28 15218.7,3301.07 15203.6,3285.8C15183.5,3267.26 15163.7,3248.51 15144.8,3228.82C15141.8,3226.03 15138.9,3223.24 15136,3220.41C15140.3,3234.3 15145.8,3247.81 15151.3,3261.31C15158.3,3277.47 15165.5,3293.55 15173.3,3309.33C15185.8,3315.73 15198.3,3321.8 15211.2,3327.31C15226.5,3334.86 15241.3,3343.33 15256,3352.09ZM15222.9,5595.43C15223.7,5593.98 15224.6,5592.54 15225.4,5591.09C15224.7,5592.08 15223.9,5593.06 15223.2,5594.05C15223.1,5594.51 15223,5594.97 15222.9,5595.43ZM14534.5,3564.16C14532.4,3567.76 14530.4,3571.37 14528.5,3575.03C14522.6,3587.09 14518.1,3599.82 14512.7,3612.15C14513.2,3611.33 14513.7,3610.49 14514.2,3609.64C14514.7,3608.81 14515.1,3607.97 14515.5,3607.14C14518.7,3599.66 14522.2,3592.29 14525.9,3585.04C14526.7,3583.2 14527.4,3581.36 14528.1,3579.51C14529.9,3574.26 14532.1,3569.19 14534.5,3564.16ZM15392.7,3636.11C15395.3,3622.61 15396.2,3608.83 15393.9,3595.23C15391.6,3583.16 15390.1,3570.96 15386.9,3559.09C15382.1,3541.55 15370.3,3527.95 15361.8,3512.38C15328.5,3453.76 15290.8,3428.82 15236.7,3392.16C15226.4,3384.8 15215.7,3378.19 15205.1,3371.43C15217,3394.64 15229.1,3417.67 15241.5,3440.63C15263.1,3482.58 15291.5,3520.35 15317.1,3559.83C15339.8,3591.56 15362.5,3623.34 15382,3657.24C15383,3658.91 15384,3660.59 15384.9,3662.27C15390.1,3654.82 15390.4,3644.72 15392.7,3636.11ZM13275.8,3045.95C13267.8,3039.32 13272.4,3022.06 13282.1,3019.7C13289.6,3014.41 13294.9,3026.95 13293,3033.03C13291.4,3039.94 13283.8,3051.07 13275.8,3045.95Z" style="fill:rgb(13,13,13);"/>
                    </g>
                </g>
            </g>
        </g>
    </g>
</svg>
